<svg width="186" height="34" viewBox="0 0 186 34" fill="none" xmlns="http://www.w3.org/2000/svg">
<path d="M6.48006 27C5.54673 28.3067 5.01339 29.36 4.88006 30.16C4.74673 30.9333 4.94673 31.5067 5.48006 31.88C6.01339 32.2267 6.82673 32.4133 7.92006 32.44L7.72006 33.24C6.84006 33.1867 6.00006 33.16 5.20006 33.16C4.40006 33.1333 3.64006 33.12 2.92006 33.12C2.28006 33.12 1.74673 33.1333 1.32006 33.16C0.866725 33.16 0.426725 33.1867 5.85318e-05 33.24L0.200058 32.44C0.600058 32.3333 1.01339 32.1467 1.44006 31.88C1.84006 31.6133 2.29339 31.2267 2.80006 30.72C3.28006 30.2133 3.80006 29.5467 4.36006 28.72L21.4401 4.71999C21.6267 4.71999 21.8001 4.71999 21.9601 4.71999C22.1467 4.71999 22.3334 4.71999 22.5201 4.71999L24.1201 29.88C24.2001 30.84 24.4401 31.5067 24.8401 31.88C25.2667 32.2267 25.6801 32.4133 26.0801 32.44L25.9201 33.24C25.3334 33.1867 24.5867 33.16 23.6801 33.16C22.7734 33.1333 21.9067 33.12 21.0801 33.12C20.0401 33.12 19.0534 33.1333 18.1201 33.16C17.1867 33.16 16.4401 33.1867 15.8801 33.24L16.0401 32.44C17.3201 32.3867 18.2267 32.16 18.7601 31.76C19.2934 31.3333 19.5334 30.44 19.4801 29.08L18.4401 9.75999L19.0801 9.23999L6.48006 27ZM9.88006 21.72H21.5601L21.2401 22.52H9.16006L9.88006 21.72ZM56.2369 -1.09673e-05C56.9836 -1.09673e-05 57.5436 0.226656 57.9169 0.67999C58.2903 1.10666 58.4769 1.62666 58.4769 2.23999C58.4769 2.93332 58.2769 3.54666 57.8769 4.07999C57.4769 4.61332 56.9569 5.05332 56.3169 5.39999C55.5969 5.82666 54.6903 6.14666 53.5969 6.35999C52.5303 6.57332 51.2903 6.67999 49.8769 6.67999C48.7836 6.67999 47.6769 6.62666 46.5569 6.51999C45.4636 6.41332 44.3569 6.27999 43.2369 6.11999C42.1436 5.95999 41.0503 5.82666 39.9569 5.71999C38.8903 5.61332 37.8636 5.55999 36.8769 5.55999C36.0236 5.55999 35.1703 5.59999 34.3169 5.67999C33.4636 5.75999 32.8103 5.94666 32.3569 6.23999C32.7303 6.47999 33.0369 6.85332 33.2769 7.35999C33.5169 7.83999 33.6369 8.34666 33.6369 8.87999C33.6369 9.51999 33.4369 10.12 33.0369 10.68C32.6369 11.24 32.0503 11.52 31.2769 11.52C30.5836 11.52 30.0503 11.2933 29.6769 10.84C29.3303 10.3867 29.1569 9.82666 29.1569 9.15999C29.1569 8.57332 29.3036 7.97332 29.5969 7.35999C29.9169 6.71999 30.5303 6.18666 31.4369 5.75999C32.0503 5.46666 32.7036 5.25332 33.3969 5.11999C34.1169 4.98666 34.7836 4.90666 35.3969 4.87999C36.0103 4.85332 36.4769 4.83999 36.7969 4.83999C38.3969 4.83999 39.9303 4.93332 41.3969 5.11999C42.8636 5.27999 44.3169 5.45332 45.7569 5.63999C47.1969 5.79999 48.6636 5.87999 50.1569 5.87999C51.3303 5.87999 52.3169 5.81332 53.1169 5.67999C53.9169 5.54666 54.6369 5.31999 55.2769 4.99999L55.1969 5.27999C54.9036 5.01332 54.6103 4.63999 54.3169 4.15999C54.0236 3.67999 53.8769 3.14665 53.8769 2.55999C53.8769 1.89332 54.0769 1.30665 54.4769 0.799988C54.9036 0.266655 55.4903 -1.09673e-05 56.2369 -1.09673e-05ZM41.9969 5.63999C41.9969 5.63999 42.1436 5.65332 42.4369 5.67999C42.7303 5.70666 43.0903 5.74666 43.5169 5.79999C43.9703 5.85332 44.4236 5.90666 44.8769 5.95999C45.3303 6.01332 45.7036 6.05332 45.9969 6.07999C46.2903 6.10666 46.4369 6.11999 46.4369 6.11999L40.4769 28.6C40.2103 29.5867 40.1036 30.36 40.1569 30.92C40.2103 31.4533 40.4903 31.84 40.9969 32.08C41.5303 32.2933 42.3569 32.4133 43.4769 32.44L43.3169 33.24C42.5703 33.1867 41.6103 33.16 40.4369 33.16C39.2903 33.1333 38.1036 33.12 36.8769 33.12C35.6503 33.12 34.4636 33.1333 33.3169 33.16C32.1969 33.16 31.3036 33.1867 30.6369 33.24L30.7969 32.44C31.9169 32.3867 32.7836 32.2533 33.3969 32.04C34.0369 31.8 34.5303 31.4133 34.8769 30.88C35.2503 30.32 35.5836 29.56 35.8769 28.6L41.9969 5.63999ZM64.9576 33C65.7842 33 66.5576 32.88 67.2776 32.64C67.9976 32.4 68.5842 32.1467 69.0376 31.88C69.5709 31.56 69.9576 31.1867 70.1976 30.76C70.4376 30.3333 70.6376 29.8267 70.7976 29.24L71.7176 25.72C72.0109 24.6267 72.1176 23.8133 72.0376 23.28C71.9842 22.7467 71.6909 22.3867 71.1576 22.2C70.6509 22.0133 69.8376 21.9067 68.7176 21.88L68.9176 21.08C69.4242 21.1067 70.0242 21.1333 70.7176 21.16C71.4109 21.16 72.1176 21.1733 72.8376 21.2C73.5842 21.2 74.2776 21.2 74.9176 21.2C75.9042 21.2 76.7976 21.1867 77.5976 21.16C78.3976 21.1333 79.0642 21.1067 79.5976 21.08L79.3976 21.88C78.8109 21.9067 78.3442 22 77.9976 22.16C77.6776 22.32 77.3976 22.64 77.1576 23.12C76.9442 23.6 76.7042 24.3333 76.4376 25.32L74.3176 33.24H73.5176C73.5976 32.7067 73.5976 32.2 73.5176 31.72C73.4376 31.2133 73.2109 30.96 72.8376 30.96C72.5442 30.96 72.2376 31.04 71.9176 31.2C71.6242 31.3333 71.2109 31.5467 70.6776 31.84C69.6642 32.4533 68.6376 32.9333 67.5976 33.28C66.5576 33.6267 65.4376 33.8 64.2376 33.8C60.8776 33.8 58.3042 33 56.5176 31.4C54.7309 29.8 53.8376 27.5467 53.8376 24.64C53.8376 22.8267 54.1176 20.9733 54.6776 19.08C55.2376 17.1867 56.0376 15.36 57.0776 13.6C58.1442 11.84 59.4109 10.2667 60.8776 8.87999C62.3709 7.49332 64.0376 6.39999 65.8776 5.59999C67.7442 4.77332 69.7576 4.35999 71.9176 4.35999C73.6509 4.35999 74.9842 4.61332 75.9176 5.11999C76.8776 5.62666 77.7309 6.23999 78.4776 6.95999C78.8776 7.35999 79.2509 7.42666 79.5976 7.15999C79.9442 6.89332 80.3309 6.14666 80.7576 4.91999H81.6376C81.2376 5.95999 80.8242 7.22666 80.3976 8.71999C79.9709 10.1867 79.5309 11.9867 79.0776 14.12H78.1976C78.2509 13.5867 78.2909 13.08 78.3176 12.6C78.3709 12.0933 78.3976 11.6 78.3976 11.12C78.3976 10.56 78.3576 10.04 78.2776 9.55999C78.1976 9.07999 78.0509 8.62666 77.8376 8.19999C77.2776 7.21332 76.4509 6.45332 75.3576 5.91999C74.2909 5.35999 73.0642 5.07999 71.6776 5.07999C69.9442 5.07999 68.3709 5.55999 66.9576 6.51999C65.5709 7.45332 64.3442 8.70666 63.2776 10.28C62.2109 11.8267 61.3176 13.5333 60.5976 15.4C59.8776 17.24 59.3309 19.0933 58.9576 20.96C58.6109 22.8 58.4376 24.4667 58.4376 25.96C58.4376 28.36 58.9709 30.1333 60.0376 31.28C61.1042 32.4267 62.7442 33 64.9576 33ZM99.5866 19.4L99.8666 18.6H113.987L113.667 19.4H99.5866ZM115.507 9.15999C115.773 8.17332 115.88 7.45332 115.827 6.99999C115.8 6.51999 115.573 6.19999 115.147 6.03999C114.72 5.85332 114.053 5.74666 113.147 5.71999L113.347 4.91999C114.013 4.94666 114.84 4.97332 115.827 4.99999C116.813 5.02666 117.8 5.03999 118.787 5.03999C119.933 5.03999 121 5.02666 121.987 4.99999C122.973 4.97332 123.787 4.94666 124.427 4.91999L124.227 5.71999C123.32 5.74666 122.613 5.85332 122.107 6.03999C121.6 6.19999 121.2 6.51999 120.907 6.99999C120.64 7.45332 120.373 8.17332 120.107 9.15999L114.827 29C114.587 29.96 114.48 30.68 114.507 31.16C114.533 31.64 114.76 31.96 115.187 32.12C115.613 32.28 116.28 32.3867 117.187 32.44L117.027 33.24C116.413 33.1867 115.613 33.16 114.627 33.16C113.64 33.1333 112.573 33.12 111.427 33.12C110.44 33.12 109.44 33.1333 108.427 33.16C107.44 33.16 106.613 33.1867 105.947 33.24L106.107 32.44C107.013 32.3867 107.72 32.28 108.227 32.12C108.733 31.96 109.133 31.64 109.427 31.16C109.72 30.68 109.987 29.96 110.227 29L115.507 9.15999ZM98.1866 29C97.9466 29.96 97.84 30.68 97.8666 31.16C97.8933 31.64 98.12 31.96 98.5466 32.12C98.9733 32.28 99.64 32.3867 100.547 32.44L100.387 33.24C99.7466 33.1867 98.92 33.16 97.9066 33.16C96.92 33.1333 95.92 33.12 94.9066 33.12C93.7866 33.12 92.7333 33.1333 91.7466 33.16C90.7866 33.16 89.9866 33.1867 89.3466 33.24L89.5466 32.44C90.4266 32.3867 91.1066 32.28 91.5866 32.12C92.0933 31.96 92.4933 31.64 92.7866 31.16C93.08 30.68 93.3466 29.96 93.5866 29L98.8666 9.15999C99.1333 8.17332 99.24 7.45332 99.1866 6.99999C99.1333 6.51999 98.8933 6.19999 98.4666 6.03999C98.0666 5.85332 97.4133 5.74666 96.5066 5.71999L96.7066 4.91999C97.2933 4.94666 98.08 4.97332 99.0666 4.99999C100.08 5.02666 101.147 5.03999 102.267 5.03999C103.28 5.03999 104.28 5.02666 105.267 4.99999C106.253 4.97332 107.093 4.94666 107.787 4.91999L107.587 5.71999C106.68 5.74666 105.973 5.85332 105.467 6.03999C104.96 6.19999 104.56 6.51999 104.267 6.99999C104 7.45332 103.733 8.17332 103.467 9.15999L98.1866 29ZM133.385 12.88C132.611 12.88 131.851 13.2267 131.105 13.92C130.358 14.6133 129.651 15.56 128.985 16.76C128.345 17.9333 127.771 19.2533 127.265 20.72C126.758 22.1867 126.358 23.7067 126.065 25.28C125.798 26.8533 125.665 28.3467 125.665 29.76C125.665 30.88 125.825 31.7067 126.145 32.24C126.491 32.7467 126.985 33 127.625 33C128.398 33 129.158 32.6533 129.905 31.96C130.651 31.2667 131.358 30.3333 132.025 29.16C132.691 27.9867 133.265 26.68 133.745 25.24C134.251 23.7733 134.638 22.2533 134.905 20.68C135.198 19.1067 135.345 17.5867 135.345 16.12C135.345 14.9467 135.185 14.12 134.865 13.64C134.545 13.1333 134.051 12.88 133.385 12.88ZM121.585 27.4C121.585 26.2267 121.745 24.9467 122.065 23.56C122.385 22.1733 122.878 20.8 123.545 19.44C124.211 18.08 125.011 16.8533 125.945 15.76C126.905 14.64 128.025 13.7467 129.305 13.08C130.611 12.4133 132.051 12.08 133.625 12.08C135.411 12.08 136.825 12.6133 137.865 13.68C138.905 14.72 139.425 16.32 139.425 18.48C139.425 19.6533 139.265 20.9333 138.945 22.32C138.625 23.7067 138.131 25.08 137.465 26.44C136.798 27.8 135.985 29.04 135.025 30.16C134.091 31.2533 132.971 32.1333 131.665 32.8C130.385 33.4667 128.958 33.8 127.385 33.8C125.598 33.8 124.185 33.2667 123.145 32.2C122.105 31.1333 121.585 29.5333 121.585 27.4ZM156.303 12.64L156.183 13.44H143.263L143.463 12.64H156.303ZM146.343 29.84C146.13 30.6667 146.183 31.2667 146.503 31.64C146.823 31.9867 147.25 32.16 147.783 32.16C148.37 32.16 148.956 31.9067 149.543 31.4C150.13 30.8667 150.69 29.8533 151.223 28.36L151.783 26.76H152.543L151.703 29.2C151.143 30.9067 150.383 32.1067 149.423 32.8C148.463 33.4667 147.343 33.8 146.063 33.8C144.916 33.8 144.036 33.56 143.423 33.08C142.836 32.5733 142.49 31.88 142.383 31C142.276 30.0933 142.383 29.08 142.703 27.96L148.823 6.59999C149.623 6.57332 150.383 6.51999 151.103 6.43999C151.85 6.35999 152.53 6.22666 153.143 6.03999L146.343 29.84ZM158.615 24.28C159.975 23.8 161.215 23.3067 162.335 22.8C163.481 22.2933 164.415 21.7467 165.135 21.16C166.121 20.3333 166.895 19.36 167.455 18.24C168.041 17.0933 168.335 15.84 168.335 14.48C168.335 13.7867 168.281 13.3467 168.175 13.16C168.068 12.9467 167.908 12.84 167.695 12.84C167.055 12.84 166.361 13.1333 165.615 13.72C164.895 14.3067 164.175 15.12 163.455 16.16C162.735 17.1733 162.068 18.3333 161.455 19.64C160.868 20.92 160.388 22.2933 160.015 23.76C159.668 25.2 159.495 26.6267 159.495 28.04C159.495 29.4267 159.748 30.4133 160.255 31C160.788 31.5867 161.481 31.88 162.335 31.88C163.215 31.88 164.188 31.6133 165.255 31.08C166.321 30.52 167.375 29.5333 168.415 28.12L169.055 28.44C168.521 29.32 167.828 30.1733 166.975 31C166.121 31.8267 165.148 32.5067 164.055 33.04C162.988 33.5467 161.828 33.8 160.575 33.8C159.481 33.8 158.508 33.5867 157.655 33.16C156.801 32.7333 156.135 32.1067 155.655 31.28C155.201 30.4267 154.975 29.3867 154.975 28.16C154.975 26.9333 155.188 25.6 155.615 24.16C156.068 22.6933 156.695 21.2533 157.495 19.84C158.321 18.4267 159.295 17.1333 160.415 15.96C161.535 14.76 162.788 13.8133 164.175 13.12C165.561 12.4267 167.028 12.08 168.575 12.08C169.535 12.08 170.335 12.32 170.975 12.8C171.615 13.2533 171.935 13.9467 171.935 14.88C171.935 15.9467 171.628 16.9467 171.015 17.88C170.428 18.7867 169.628 19.6133 168.615 20.36C167.601 21.1067 166.495 21.7733 165.295 22.36C164.121 22.9467 162.935 23.4533 161.735 23.88C160.561 24.3067 159.508 24.6533 158.575 24.92L158.615 24.28ZM176.91 29.84C176.723 30.5867 176.67 31.16 176.75 31.56C176.857 31.96 177.137 32.16 177.59 32.16C178.043 32.16 178.497 31.8933 178.95 31.36C179.403 30.8267 179.883 29.84 180.39 28.4L180.99 26.76H181.75L180.75 29.68C180.403 30.72 179.963 31.5467 179.43 32.16C178.897 32.7467 178.323 33.16 177.71 33.4C177.097 33.6667 176.457 33.8 175.79 33.8C174.91 33.8 174.243 33.64 173.79 33.32C173.337 33 173.03 32.56 172.87 32C172.737 31.4133 172.71 30.7733 172.79 30.08C172.897 29.3867 173.057 28.68 173.27 27.96L179.71 6.55999C179.977 5.65332 179.95 4.98666 179.63 4.55999C179.31 4.13332 178.497 3.91999 177.19 3.91999L177.47 3.07999C179.07 3.05332 180.483 2.90665 181.71 2.63999C182.963 2.34666 184.163 1.94666 185.31 1.43999L176.91 29.84Z" fill="#FFFDFA"/>
</svg>
